<?xml version="1.0" standalone="no"?>
<!DOCTYPE svg PUBLIC "-//W3C//DTD SVG 20010904//EN"
 "http://www.w3.org/TR/2001/REC-SVG-20010904/DTD/svg10.dtd">
<svg version="1.0" xmlns="http://www.w3.org/2000/svg"
 width="683.000000pt" height="683.000000pt" viewBox="0 0 683.000000 683.000000"
 preserveAspectRatio="xMidYMid meet">

<g transform="translate(0.000000,683.000000) scale(0.100000,-0.100000)"
fill="#000000" stroke="none">
<path d="M3945 5516 c-199 -43 -381 -123 -422 -185 -30 -45 -30 -101 0 -136
35 -41 84 -42 223 -7 365 94 723 73 1134 -64 161 -54 190 -54 190 0 0 114
-293 311 -576 387 -63 17 -116 22 -259 25 -161 3 -192 1 -290 -20z"/>
<path d="M2536 4625 c-16 -9 -91 -76 -166 -149 -265 -257 -571 -420 -963 -511
-133 -31 -163 -48 -153 -88 25 -100 427 -118 694 -31 175 58 328 152 475 293
146 141 257 304 257 379 0 95 -69 146 -144 107z"/>
<path d="M6631 4510 c0 -8 4 -24 9 -35 5 -13 9 -14 9 -5 0 8 -4 24 -9 35 -5
13 -9 14 -9 5z"/>
<path d="M4095 4426 c-102 -48 -197 -182 -240 -341 -23 -82 -31 -286 -16 -381
32 -198 120 -351 240 -422 39 -23 58 -27 121 -27 93 0 135 19 207 92 60 61
111 159 144 278 33 116 33 334 1 455 -78 287 -271 434 -457 346z"/>
<path d="M6660 4414 c0 -5 5 -25 10 -44 25 -83 69 -303 80 -395 6 -55 15 -131
21 -170 9 -64 6 -472 -4 -555 -30 -252 -65 -414 -146 -670 -72 -229 -131 -370
-217 -520 -46 -82 -84 -149 -114 -206 -15 -29 -39 -69 -54 -90 -14 -21 -26
-43 -26 -48 0 -5 -16 -24 -35 -43 -37 -36 -96 -111 -155 -197 -19 -28 -62 -78
-95 -112 -33 -34 -78 -83 -100 -109 -90 -106 -130 -149 -181 -190 -21 -16 -49
-41 -64 -55 -15 -14 -58 -52 -95 -85 -37 -33 -75 -68 -84 -77 -8 -10 -23 -18
-31 -18 -9 0 -26 -9 -38 -20 -12 -11 -24 -20 -28 -20 -5 0 -81 -57 -149 -112
-30 -24 -88 -58 -99 -58 -8 0 -19 -6 -25 -14 -11 -13 -291 -156 -306 -156 -3
0 -47 -20 -97 -45 -50 -25 -98 -45 -107 -45 -9 -1 -34 -9 -56 -20 -22 -11 -47
-19 -56 -20 -8 0 -24 -7 -35 -15 -10 -8 -27 -15 -37 -15 -10 0 -85 -16 -165
-35 -81 -19 -160 -37 -177 -39 -16 -3 -52 -10 -78 -16 -27 -5 -83 -12 -125
-15 -43 -3 -111 -11 -152 -17 -116 -17 -355 -12 -550 11 -159 19 -227 31 -430
77 -36 8 -96 21 -133 30 -37 8 -76 19 -85 24 -20 12 -90 37 -147 54 -42 12
-113 43 -177 76 -20 11 -43 20 -51 20 -8 0 -34 11 -58 24 -63 36 -146 76 -156
76 -4 0 -26 14 -47 30 -22 17 -44 30 -48 30 -5 0 -24 11 -42 25 -18 14 -40 25
-48 25 -8 0 -20 11 -27 24 -7 13 -35 34 -62 47 -26 13 -48 30 -49 37 0 6 -4
12 -9 12 -14 0 -91 52 -91 62 0 4 -6 8 -13 8 -8 0 -22 9 -33 20 -20 21 -55 55
-162 155 -36 33 -83 80 -106 104 -22 24 -99 103 -171 176 -71 73 -138 145
-147 161 -17 27 -37 54 -165 221 -29 37 -66 95 -83 128 -17 33 -39 74 -50 90
-10 17 -27 46 -36 65 -10 19 -25 46 -34 60 -10 14 -21 36 -25 50 -4 13 -14 30
-21 38 -8 7 -14 20 -14 28 0 8 -11 32 -25 52 -14 20 -25 44 -25 52 0 9 -4 20
-9 26 -5 5 -24 52 -41 104 -18 52 -36 102 -41 111 -8 16 -26 80 -89 314 -92
346 -116 886 -53 1183 8 40 12 76 9 79 -3 4 -6 -3 -6 -13 0 -11 -4 -24 -9 -29
-11 -11 -49 -306 -53 -408 -1 -38 -6 -71 -10 -73 -11 -7 -10 -233 2 -328 5
-45 17 -148 26 -231 62 -575 284 -1136 642 -1619 250 -337 587 -645 947 -868
404 -249 868 -413 1330 -472 256 -32 307 -36 455 -36 148 0 199 4 455 36 417
53 834 191 1207 400 413 231 783 556 1069 939 434 581 671 1292 673 2020 0
299 -44 621 -124 905 -30 108 -40 136 -40 114z"/>
<path d="M102 4160 c0 -14 2 -19 5 -12 2 6 2 18 0 25 -3 6 -5 1 -5 -13z"/>
<path d="M2610 3503 c-14 -2 -70 -19 -126 -38 -179 -60 -416 -84 -629 -63
-200 19 -253 17 -297 -10 -61 -38 -85 -120 -53 -181 34 -67 175 -152 305 -186
232 -60 534 -26 813 92 124 52 170 90 188 155 14 52 -2 133 -32 173 -36 44
-108 69 -169 58z"/>
<path d="M5332 3112 c-28 -4 -52 -50 -52 -100 0 -22 -7 -77 -16 -123 -53 -282
-225 -495 -477 -591 -146 -56 -395 -73 -587 -42 -131 21 -524 30 -676 15 -277
-28 -531 -100 -751 -212 -212 -109 -385 -161 -570 -174 -356 -25 -628 138
-793 476 -49 101 -64 114 -94 83 -22 -22 -20 -50 10 -140 106 -316 314 -541
586 -630 75 -25 97 -28 228 -28 127 0 158 3 248 27 115 31 199 63 347 132 127
60 273 108 417 137 152 30 485 33 618 5 137 -29 247 -65 370 -122 271 -124
525 -164 756 -116 178 37 287 96 420 226 205 201 284 394 271 660 -7 134 -29
228 -82 341 -64 139 -110 186 -173 176z"/>
</g>
</svg>
